<svg width="27" height="33" viewBox="0 0 27 33" fill="none" xmlns="http://www.w3.org/2000/svg">
<path fill-rule="evenodd" clip-rule="evenodd" d="M21.939 17.6961C21.9025 13.6731 25.2622 11.7159 25.4159 11.6248C23.5131 8.87497 20.5639 8.49926 19.5276 8.4693C17.0506 8.21092 14.6479 9.93845 13.3861 9.93845C12.0992 9.93845 10.1561 8.49427 8.062 8.53671C5.36719 8.5779 2.84615 10.1244 1.46348 12.526C-1.39 17.4227 0.738148 24.6187 3.472 28.5768C4.83956 30.5153 6.43756 32.6797 8.52919 32.6035C10.5755 32.5199 11.3399 31.3104 13.8093 31.3104C16.256 31.3104 16.9738 32.6035 19.107 32.5548C21.3031 32.5199 22.6858 30.6076 24.0055 28.6517C25.5859 26.4299 26.2205 24.2417 26.2457 24.1294C26.1941 24.1119 21.9806 22.518 21.939 17.6961Z" fill="white"/>
<path fill-rule="evenodd" clip-rule="evenodd" d="M17.9091 5.86551C19.0097 4.50122 19.7627 2.64512 19.5537 0.761566C17.9607 0.831466 15.9685 1.85375 14.8214 3.18809C13.8064 4.36391 12.8997 6.29116 13.1339 8.10356C14.9234 8.23587 16.7606 7.20859 17.9091 5.86551Z" fill="white"/>
</svg>
