<svg width="24" height="24" viewBox="0 0 24 24" fill="none" xmlns="http://www.w3.org/2000/svg">
<path fill-rule="evenodd" clip-rule="evenodd" d="M18.4754 7.32762L9.96996 15.6083L5.52487 11.2811C5.3256 11.0876 5.00705 11.092 4.81287 11.2913C4.61942 11.4905 4.62378 11.8083 4.82305 12.0025L9.61942 16.6716C9.65069 16.7029 9.68996 16.7204 9.72705 16.7414C9.74524 16.7516 9.76124 16.7684 9.78087 16.7764C9.84124 16.8011 9.90596 16.8142 9.96996 16.8142C10.034 16.8142 10.0987 16.8011 10.1591 16.7764C10.1787 16.7684 10.1947 16.7516 10.2129 16.7414C10.25 16.7204 10.2892 16.7029 10.3205 16.6716L19.1772 8.04907C19.3765 7.85489 19.3809 7.53707 19.1867 7.3378C18.9925 7.13853 18.674 7.13417 18.4754 7.32762M12 22.9934C5.93818 22.9934 1.00655 18.0617 1.00655 11.9999C1.00655 5.93737 5.93818 1.00573 12 1.00573C18.0618 1.00573 22.9935 5.93737 22.9935 11.9999C22.9935 18.0617 18.0618 22.9934 12 22.9934M12 -0.00012207C5.38327 -0.00012207 0 5.38315 0 11.9999C0 18.6159 5.38327 23.9999 12 23.9999C18.6167 23.9999 24 18.6159 24 11.9999C24 5.38315 18.6167 -0.00012207 12 -0.00012207" fill="#3FA2F7"/>
</svg>
