<svg width="24" height="25" viewBox="0 0 24 25" fill="none" xmlns="http://www.w3.org/2000/svg">
<path fill-rule="evenodd" clip-rule="evenodd" d="M0.850355 0.295876L12.8201 12.2477L0.907822 24.3038C0.560196 24.0834 0.373843 23.6049 0.370687 22.9869C0.364708 21.8024 0.26987 2.99949 0.262729 1.58872C0.259407 0.91207 0.505552 0.49917 0.850355 0.295876ZM16.7673 8.25308L2.21196 0.312153C2.0565 0.227115 1.87995 0.175461 1.70406 0.152374L13.3152 11.7466L16.7673 8.25308ZM17.4145 15.8396L13.8138 12.2444L17.4109 8.60419L22.3643 11.3061C23.5846 11.9715 22.9604 12.8039 22.3643 13.1303L17.4145 15.8396ZM1.89456 24.3077C1.99604 24.2695 2.10201 24.2208 2.21196 24.1607L16.7702 16.192L13.3187 12.7456L1.89456 24.3077Z" fill="#FFFFFE"/>
</svg>
